<svg width="39" height="39" viewBox="0 0 39 39" fill="none" xmlns="http://www.w3.org/2000/svg">
<circle cx="19.6862" cy="19.4813" r="17" fill="#0BCAD4" stroke="white" stroke-width="4"/>
<path d="M23.6862 19.2213C23.9648 19.2213 24.1922 19.3167 24.3682 19.5073C24.5588 19.6833 24.6542 19.9107 24.6542 20.1893C24.6542 20.468 24.5588 20.7027 24.3682 20.8933C24.1922 21.0693 23.9648 21.1573 23.6862 21.1573H20.2542V24.5673C20.2542 24.846 20.1588 25.0807 19.9682 25.2713C19.7922 25.462 19.5648 25.5573 19.2862 25.5573C19.0075 25.5573 18.7728 25.462 18.5822 25.2713C18.4062 25.0807 18.3182 24.846 18.3182 24.5673V21.1573H14.8862C14.6075 21.1573 14.3728 21.0693 14.1822 20.8933C14.0062 20.7027 13.9182 20.468 13.9182 20.1893C13.9182 19.9107 14.0062 19.6833 14.1822 19.5073C14.3728 19.3167 14.6075 19.2213 14.8862 19.2213H18.3182V15.7893C18.3182 15.5107 18.4062 15.2833 18.5822 15.1073C18.7728 14.9167 19.0075 14.8213 19.2862 14.8213C19.5648 14.8213 19.7922 14.9167 19.9682 15.1073C20.1588 15.2833 20.2542 15.5107 20.2542 15.7893V19.2213H23.6862Z" fill="white"/>
</svg>
