<svg width="17" height="22" viewBox="0 0 17 22" fill="none" xmlns="http://www.w3.org/2000/svg">
<path fill-rule="evenodd" clip-rule="evenodd" d="M12.6 2C12.6 3.1 11.7 4 10.6 4C9.5 4 8.6 3.1 8.6 2C8.6 0.9 9.5 0 10.6 0C11.7 0 12.6 0.9 12.6 2ZM8 13.5L7 17.9L0 16.5L0.4 14.5L5.3 15.5L6.9 7.4L5.1 8.1V11.5H3.1V6.8L8.3 4.6C8.45 4.6 8.575 4.575 8.7 4.55C8.825 4.525 8.95 4.5 9.1 4.5C9.8 4.5 10.4 4.9 10.8 5.5L11.8 7.1C12.6 8.5 14.2 9.5 16.1 9.5V11.5C13.9 11.5 11.9 10.5 10.6 9L10 12L12.1 14V21.5H10.1V15.5L8 13.5Z" fill="#0BCAD4"/>
</svg>
