<svg width="1098" height="812" viewBox="0 0 1098 812" fill="none" xmlns="http://www.w3.org/2000/svg">
<path opacity="0.1" d="M11.8568 429.99C29.2168 504.19 65.9668 568.33 124.047 599.42C244.747 664.03 516.957 630.71 720.117 592.42C822.766 573.143 915.943 519.885 984.647 441.22L11.8568 429.99Z" fill="#0BCAD4"/>
<path opacity="0.1" d="M1077.21 80.7297H965.737C963.182 80.7297 960.731 79.7146 958.924 77.9076C957.117 76.1007 956.102 73.65 956.102 71.0947C956.102 68.5393 957.117 66.0886 958.924 64.2817C960.731 62.4748 963.182 61.4597 965.737 61.4597H985.007C982.451 61.4597 980.001 60.4446 978.194 58.6376C976.387 56.8307 975.372 54.38 975.372 51.8247C975.372 49.2693 976.387 46.8186 978.194 45.0117C980.001 43.2048 982.451 42.1897 985.007 42.1897H971.247C968.692 42.1897 966.241 41.1746 964.434 39.3676C962.627 37.5607 961.612 35.11 961.612 32.5547C961.612 29.9993 962.627 27.5486 964.434 25.7417C966.241 23.9348 968.692 22.9197 971.247 22.9197H1029.43C1016.52 16.9197 1001.43 12.6497 984.047 10.4097C825.407 -9.97033 768.767 3.50967 748.787 17.4097C724.137 34.5097 696.637 47.0897 667.247 53.1497C569.357 73.3197 386.307 97.6197 220.397 45.3497C137.937 19.3497 76.6469 63.2697 39.9169 136.63H1096.56C1095.18 115.31 1091.05 95.6297 1083.47 78.3897C1081.73 79.8958 1079.51 80.7264 1077.21 80.7297Z" fill="#0BCAD4"/>
<path opacity="0.1" d="M2.39681 275.12C-1.88268 318.275 -0.426685 361.807 6.7268 404.58L985.407 440.37C1012.65 409.031 1035.52 374.147 1053.41 336.67L2.39681 275.12ZM389.477 367.47H370.207C372.762 367.47 375.213 368.485 377.02 370.292C378.827 372.099 379.842 374.549 379.842 377.105C379.842 379.66 378.827 382.111 377.02 383.918C375.213 385.725 372.762 386.74 370.207 386.74H258.737C256.181 386.74 253.731 385.725 251.924 383.918C250.117 382.111 249.102 379.66 249.102 377.105C249.102 374.549 250.117 372.099 251.924 370.292C253.731 368.485 256.181 367.47 258.737 367.47H278.007C275.451 367.47 273.001 366.454 271.194 364.648C269.387 362.841 268.372 360.39 268.372 357.835C268.372 355.279 269.387 352.829 271.194 351.022C273.001 349.215 275.451 348.2 278.007 348.2H264.247C261.691 348.2 259.241 347.185 257.434 345.378C255.627 343.571 254.612 341.12 254.612 338.565C254.612 336.009 255.627 333.559 257.434 331.752C259.241 329.945 261.691 328.93 264.247 328.93H375.717C378.272 328.93 380.723 329.945 382.53 331.752C384.337 333.559 385.352 336.009 385.352 338.565C385.352 341.12 384.337 343.571 382.53 345.378C380.723 347.185 378.272 348.2 375.717 348.2H389.477C392.032 348.2 394.483 349.215 396.29 351.022C398.097 352.829 399.112 355.279 399.112 357.835C399.112 360.39 398.097 362.841 396.29 364.648C394.483 366.454 392.032 367.47 389.477 367.47Z" fill="#0BCAD4"/>
<path opacity="0.1" d="M1096.61 137.3L28.1169 163.3C15.1269 196.71 6.55688 234.48 2.55688 273.63H1077.89C1084.91 250.632 1090.1 227.115 1093.42 203.3C1096.62 180.29 1097.9 158.03 1096.61 137.3ZM219.477 222.47H200.207C202.762 222.47 205.213 223.485 207.02 225.292C208.827 227.099 209.842 229.549 209.842 232.105C209.842 234.66 208.827 237.111 207.02 238.918C205.213 240.725 202.762 241.74 200.207 241.74H88.7369C86.1815 241.74 83.7308 240.725 81.9239 238.918C80.117 237.111 79.1019 234.66 79.1019 232.105C79.1019 229.549 80.117 227.099 81.9239 225.292C83.7308 223.485 86.1815 222.47 88.7369 222.47H108.007C105.452 222.47 103.001 221.455 101.194 219.648C99.387 217.841 98.3719 215.39 98.3719 212.835C98.3719 210.279 99.387 207.829 101.194 206.022C103.001 204.215 105.452 203.2 108.007 203.2H94.2469C91.6915 203.2 89.2408 202.185 87.4339 200.378C85.627 198.571 84.6119 196.12 84.6119 193.565C84.6119 191.009 85.627 188.559 87.4339 186.752C89.2408 184.945 91.6915 183.93 94.2469 183.93H205.717C208.272 183.93 210.723 184.945 212.53 186.752C214.337 188.559 215.352 191.009 215.352 193.565C215.352 196.12 214.337 198.571 212.53 200.378C210.723 202.185 208.272 203.2 205.717 203.2H219.477C222.032 203.2 224.483 204.215 226.29 206.022C228.097 207.829 229.112 210.279 229.112 212.835C229.112 215.39 228.097 217.841 226.29 219.648C224.483 221.455 222.032 222.47 219.477 222.47V222.47Z" fill="#0BCAD4"/>
<path d="M938.687 811.32C938.687 811.32 894.127 566.92 809.157 527.26C737.157 493.63 659.297 470.96 637.157 464.81C633.851 459.484 630.029 454.497 625.747 449.92C595.487 418.33 577.307 418.92 574.367 419.31C572.971 413.045 571.969 406.699 571.367 400.31C571.277 399.31 571.187 398.38 571.107 397.39L571.367 397.26C571.187 395.37 571.027 393.42 570.887 391.41C583.239 384.817 594.612 376.534 604.677 366.8C604.807 367.23 604.917 367.66 605.057 368.1C626.863 349.666 648.22 330.733 669.127 311.3C675.127 305.69 681.427 299.6 683.467 291.69C684.12 288.968 684.373 286.165 684.217 283.37C684.487 277.37 683.067 271.24 682.827 265.16C682.827 264.16 682.937 263.23 683.067 262.28C684.467 252.33 691.387 244.16 697.067 235.81C711.257 214.708 718.664 189.776 718.297 164.35C718.452 152.166 716.767 140.029 713.297 128.35C708.867 113.53 699.647 97.9597 684.297 94.7197C678.357 93.4697 672.187 94.2497 666.127 93.8597C641.037 92.2597 622.257 71.8597 602.247 56.9097C577.825 38.7518 548.944 27.5421 518.667 24.4697C509.217 23.4697 499.457 23.3997 490.467 26.3997C470.277 33.1197 458.017 53.8697 438.567 62.3997C424.187 68.7397 407.567 67.7097 392.567 72.4697C370.237 79.5697 351.287 102.47 350.787 126C350.787 126.87 350.787 127.74 350.787 128.61C350.787 128.76 350.787 128.91 350.787 129.05C350.537 140.94 354.787 153.05 355.127 165.22C355.127 166.32 355.143 167.423 355.177 168.53C355.067 181.67 353.497 194.85 348.707 207.2C346.127 213.85 342.807 221.55 343.347 228.2C343.047 232.27 343.837 236.09 346.667 239.2L351.497 234.94C349.877 243.707 349.064 252.604 349.067 261.52C349.067 306.46 369.507 346.7 401.747 373.78C401.933 376.773 402.113 379.98 402.287 383.4C403.047 398.22 403.647 416.81 403.477 437.07L356.317 480.42L235.077 535.42C235.077 535.42 124.197 558.84 148.077 714.61L159.477 811.33H260.707L260.477 811.84H410.727L410.817 811.33H768.297L768.227 811.84H782.227V811.33L938.687 811.32ZM575.257 421.79C578.321 428.129 580.734 434.763 582.457 441.59C578.919 435.02 576.304 427.994 574.687 420.71L574.837 420.98L575.257 421.79ZM403.437 441.79C403.437 443.696 403.403 445.62 403.337 447.56L403.097 447.9C403.081 445.841 403.194 443.784 403.437 441.74V441.79Z" fill="url(#paint0_linear)"/>
<path d="M614.807 466.32L594.807 657.32L487.807 691.32C487.807 691.32 348.807 665.32 384.807 590.32C410.417 536.97 409.707 441.63 407.167 391.03C406.167 370.49 404.807 357.32 404.807 357.32C404.807 357.32 586.807 198.32 571.807 341.32C568.907 369.01 568.737 390.66 570.347 407.58C577.097 478.02 614.807 466.32 614.807 466.32Z" fill="#FDC2CC"/>
<path opacity="0.03" d="M614.807 466.32L594.807 657.32L487.807 691.32C487.807 691.32 348.807 665.32 384.807 590.32C410.417 536.97 409.707 441.63 407.167 391.03C406.167 370.49 404.807 357.32 404.807 357.32C404.807 357.32 586.807 198.32 571.807 341.32C568.907 369.01 568.737 390.66 570.347 407.58C577.097 478.02 614.807 466.32 614.807 466.32Z" fill="black"/>
<path opacity="0.1" d="M571.807 338.32C568.907 366.01 568.737 387.66 570.347 404.58C544.653 418.607 515.317 424.533 486.193 421.579C457.07 418.625 429.521 406.93 407.167 388.03C406.167 367.49 404.807 354.32 404.807 354.32C404.807 354.32 586.807 195.32 571.807 338.32Z" fill="black"/>
<path d="M500.807 416.33C580.888 416.33 645.807 351.411 645.807 271.33C645.807 191.248 580.888 126.33 500.807 126.33C420.726 126.33 355.807 191.248 355.807 271.33C355.807 351.411 420.726 416.33 500.807 416.33Z" fill="#FDC2CC"/>
<path opacity="0.03" d="M500.807 416.33C580.888 416.33 645.807 351.411 645.807 271.33C645.807 191.248 580.888 126.33 500.807 126.33C420.726 126.33 355.807 191.248 355.807 271.33C355.807 351.411 420.726 416.33 500.807 416.33Z" fill="black"/>
<path opacity="0.1" d="M261.807 659.32C261.807 659.32 308.807 755.32 311.307 811.82Z" fill="black"/>
<path opacity="0.1" d="M272.307 811.82L346.807 642.32C346.807 642.32 367.807 602.32 372.807 562.32C377.807 522.32 404.807 459.32 404.807 459.32C404.807 459.32 471.807 374.32 502.807 386.32C533.807 398.32 475.807 443.32 475.807 443.32C475.807 443.32 560.807 476.32 502.807 574.32C444.807 672.32 443.807 654.32 443.807 654.32L415.307 811.82H272.307Z" fill="black"/>
<path d="M270.307 811.82L344.807 642.32C344.807 642.32 365.807 602.32 370.807 562.32C373.987 536.89 386.057 502.16 394.427 480.23C399.89 465.893 407.929 452.675 418.147 441.23C439.807 416.99 479.147 377.9 500.807 386.3C531.807 398.3 473.807 443.3 473.807 443.3C473.807 443.3 558.807 476.3 500.807 574.3C442.807 672.3 441.807 654.3 441.807 654.3L413.307 811.8L270.307 811.82Z" fill="#FDC2CC"/>
<path opacity="0.15" d="M545.307 192.83C546.964 192.83 548.307 191.487 548.307 189.83C548.307 188.173 546.964 186.83 545.307 186.83C543.65 186.83 542.307 188.173 542.307 189.83C542.307 191.487 543.65 192.83 545.307 192.83Z" fill="white"/>
<path opacity="0.15" d="M531.307 198.83C532.964 198.83 534.307 197.487 534.307 195.83C534.307 194.173 532.964 192.83 531.307 192.83C529.65 192.83 528.307 194.173 528.307 195.83C528.307 197.487 529.65 198.83 531.307 198.83Z" fill="white"/>
<path opacity="0.1" d="M397.797 88.5996C412.267 83.9196 428.327 84.9296 442.207 78.7096C460.977 70.2896 472.807 49.9096 492.287 43.3096C500.967 40.3696 510.387 40.4796 519.497 41.4196C548.792 44.4685 576.69 55.4914 600.157 73.2896C619.467 87.9796 637.587 108.01 661.797 109.58C667.647 109.96 673.597 109.19 679.327 110.42C694.167 113.6 703.057 128.89 707.327 143.42C712.267 160.639 713.425 178.724 710.722 196.433C708.019 214.142 701.519 231.058 691.667 246.02C686.187 254.22 679.507 262.25 678.157 272.02C676.837 281.6 680.917 291.53 678.537 300.91C676.537 308.68 670.537 314.66 664.697 320.17C644.53 339.243 623.92 357.826 602.867 375.92C591.927 341.16 607.977 303.73 605.477 267.38C604.477 253.22 599.477 237.76 586.987 231.08C575.297 224.84 560.357 228.08 548.527 222.08C535.327 215.43 529.907 199.68 519.927 188.78C502.927 170.18 473.417 167.78 449.647 176.18C425.877 184.58 406.447 201.86 387.647 218.71L353.477 249.36C346.807 241.84 351.867 230.3 355.477 220.9C360.857 206.81 362.037 191.62 361.677 176.66C361.387 164.66 357.247 152.81 357.487 141.13C357.967 118.09 376.247 95.5696 397.797 88.5996Z" fill="black"/>
<path d="M397.797 85.5996C412.267 80.9196 428.327 81.9296 442.207 75.7096C460.977 67.2896 472.807 46.9096 492.287 40.3096C500.967 37.3696 510.387 37.4796 519.497 38.4196C548.792 41.4685 576.69 52.4914 600.157 70.2896C619.467 84.9796 637.587 105.01 661.797 106.58C667.647 106.96 673.597 106.19 679.327 107.42C694.167 110.6 703.057 125.89 707.327 140.42C712.267 157.639 713.425 175.724 710.722 193.433C708.019 211.142 701.519 228.058 691.667 243.02C686.187 251.22 679.507 259.25 678.157 269.02C676.837 278.6 680.917 288.53 678.537 297.91C676.537 305.68 670.537 311.66 664.697 317.17C644.53 336.243 623.92 354.826 602.867 372.92C591.927 338.16 607.977 300.73 605.477 264.38C604.477 250.22 599.477 234.76 586.987 228.08C575.297 221.84 560.357 225.08 548.527 219.08C535.327 212.43 529.907 196.68 519.927 185.78C502.927 167.18 473.417 164.78 449.647 173.18C425.877 181.58 406.447 198.86 387.647 215.71L353.477 246.36C346.807 238.84 351.867 227.3 355.477 217.9C360.857 203.81 362.037 188.62 361.677 173.66C361.387 161.66 357.247 149.81 357.487 138.13C357.967 115.09 376.247 92.5696 397.797 85.5996Z" fill="#865A61"/>
<defs>
<linearGradient id="paint0_linear" x1="614" y1="763" x2="541.687" y2="23.7996" gradientUnits="userSpaceOnUse">
<stop stop-color="#0BCAD4"/>
<stop offset="0.54" stop-color="#808080" stop-opacity="0.12"/>
<stop offset="1" stop-color="#808080" stop-opacity="0.1"/>
</linearGradient>
</defs>
</svg>
